<svg width="168" height="168" viewBox="0 0 168 168" fill="none" xmlns="http://www.w3.org/2000/svg">
<path d="M68.25 102.375V112.875H105V102.375H91.875V57.75H81.375V65.625H70.875V76.125H81.375V102.375H68.25Z" fill="white"/>
<path d="M152.25 69.0739V86.625C152.239 96.3683 148.363 105.709 141.474 112.599C134.584 119.489 125.243 123.364 115.5 123.375H25.7994L40.4619 108.712L33.0378 101.288L18.3749 115.951L16.9262 117.399L5.91235 128.413L30.2008 155.738L38.0489 148.762L24.816 133.875H115.5C141.553 133.875 162.75 112.678 162.75 86.625V58.5739L152.25 69.0739Z" fill="white"/>
<path d="M15.75 84C15.761 74.2567 19.6364 64.9156 26.526 58.026C33.4156 51.1364 42.7567 47.261 52.5 47.25H142.201L127.538 61.9129L134.962 69.3371L149.625 54.6745L150.976 53.3239L162.088 42.212L137.799 14.887L129.951 21.863L143.184 36.75H52.5C26.4469 36.75 5.25 57.9469 5.25 84V112.149L15.75 101.649V84Z" fill="white"/>
</svg>
