<svg width="50" height="50" viewBox="0 0 50 50" fill="none" xmlns="http://www.w3.org/2000/svg">
<path d="M20.3125 30.4688V33.5938H31.25V30.4688H27.3438V17.1875H24.2188V19.5312H21.0938V22.6562H24.2188V30.4688H20.3125Z" fill="white" fill-opacity="0.75"/>
<path d="M45.3126 20.5577V25.7812C45.3093 28.681 44.1559 31.4611 42.1055 33.5116C40.055 35.5621 37.2749 36.7155 34.3751 36.7188H7.67852L12.0424 32.3548L9.83281 30.1452L5.46885 34.5091L5.0377 34.9401L1.75977 38.2182L8.98848 46.3506L11.3242 44.2744L7.38584 39.8438H34.3751C42.129 39.8438 48.4376 33.5352 48.4376 25.7812V17.4327L45.3126 20.5577Z" fill="white" fill-opacity="0.75"/>
<path d="M4.6875 25C4.69078 22.1002 5.84418 19.3201 7.89464 17.2696C9.94511 15.2192 12.7252 14.0658 15.625 14.0625H42.3216L37.9577 18.4265L40.1673 20.636L44.5312 16.2722L44.9333 15.8702L48.2403 12.5631L41.0116 4.43066L38.6759 6.50684L42.6143 10.9375H15.625C7.87109 10.9375 1.5625 17.2461 1.5625 25V33.3776L4.6875 30.2526V25Z" fill="white" fill-opacity="0.75"/>
</svg>
