<svg width="50" height="50" viewBox="0 0 50 50" fill="none" xmlns="http://www.w3.org/2000/svg">
<path d="M44.3826 38.6455V11.2855L44.3831 11.283L44.3826 11.2805V11.163H44.3706C44.3416 10.8496 44.1967 10.5583 43.9644 10.346C43.732 10.1337 43.4288 10.0157 43.1141 10.015C43.0991 10.015 43.0851 10.019 43.0706 10.0195H40.7861C40.7506 10.0165 40.7161 10.009 40.6796 10.009C40.3432 10.0091 40.0206 10.1428 39.7828 10.3807C39.5449 10.6185 39.4112 10.9411 39.4111 11.2775C39.4111 11.336 39.4206 11.3925 39.4286 11.449V23.0195L22.7581 13.3945C22.6392 13.277 22.4886 13.1968 22.3247 13.1638C22.1609 13.1307 21.991 13.1463 21.8358 13.2085C21.6807 13.2708 21.5472 13.377 21.4516 13.5142C21.3561 13.6513 21.3027 13.8134 21.2981 13.9805H21.2951V21.605L7.07407 13.394C6.9552 13.2765 6.80458 13.1963 6.64073 13.1633C6.47688 13.1302 6.30695 13.1458 6.15183 13.208C5.99672 13.2703 5.86318 13.3765 5.76763 13.5137C5.67209 13.6508 5.61872 13.8129 5.61407 13.98H5.61157V35.9955C5.61181 36.1662 5.66291 36.333 5.75835 36.4745C5.85379 36.6161 5.98924 36.726 6.14741 36.7902C6.30558 36.8544 6.4793 36.87 6.6464 36.8351C6.81349 36.8002 6.96639 36.7162 7.08557 36.594L21.2951 28.39V35.996C21.2953 36.1667 21.3464 36.3335 21.4419 36.475C21.5373 36.6166 21.6727 36.7265 21.8309 36.7907C21.9891 36.8549 22.1628 36.8705 22.3299 36.8356C22.497 36.8007 22.6499 36.7167 22.7691 36.5945L39.4286 26.976V38.667H39.4351C39.4341 38.6865 39.4291 38.7045 39.4291 38.724C39.4292 39.0599 39.5626 39.3821 39.7999 39.6198C40.0372 39.8575 40.3592 39.9913 40.6951 39.992H43.1211V39.98C43.2877 39.98 43.4526 39.9472 43.6065 39.8834C43.7604 39.8197 43.9002 39.7263 44.018 39.6085C44.1358 39.4907 44.2293 39.3508 44.293 39.1969C44.3568 39.043 44.3896 38.8781 44.3896 38.7115C44.3891 38.6885 44.3836 38.6675 44.3826 38.6455V38.6455Z" fill="white" fill-opacity="0.75"/>
</svg>
