<svg width="88" height="88" viewBox="0 0 88 88" fill="none" xmlns="http://www.w3.org/2000/svg">
<rect x="25" y="23" width="42" height="43" fill="white"/>
<path d="M44.0001 0.0726929C19.742 0.0726929 0.0727539 19.7419 0.0727539 44C0.0727539 68.2581 19.742 87.9273 44.0001 87.9273C68.2581 87.9273 87.9274 68.2581 87.9274 44C87.9274 19.7419 68.2581 0.0726929 44.0001 0.0726929ZM36.1559 58.9039C36.1559 59.3353 35.8029 59.6883 35.3715 59.6883H30.665C30.2336 59.6883 29.8806 59.3353 29.8806 58.9039V29.0961C29.8806 28.6647 30.2336 28.3117 30.665 28.3117H35.3715C35.8029 28.3117 36.1559 28.6647 36.1559 29.0961V58.9039ZM58.1196 58.9039C58.1196 59.3353 57.7666 59.6883 57.3351 59.6883H52.6286C52.1972 59.6883 51.8442 59.3353 51.8442 58.9039V29.0961C51.8442 28.6647 52.1972 28.3117 52.6286 28.3117H57.3351C57.7666 28.3117 58.1196 28.6647 58.1196 29.0961V58.9039Z" fill="#0A9BA5"/>
</svg>
