<svg width="88" height="88" viewBox="0 0 88 88" fill="none" xmlns="http://www.w3.org/2000/svg">
<rect x="26.3999" y="22" width="36.08" height="39.6" fill="white"/>
<path d="M44 0.25C19.8398 0.25 0.25 19.8398 0.25 44C0.25 68.1602 19.8398 87.75 44 87.75C68.1601 87.75 87.75 68.1602 87.75 44C87.75 19.8398 68.1601 0.25 44 0.25ZM58.0723 44.6738L36.7441 60.1914C36.6272 60.2754 36.4894 60.3256 36.3458 60.3364C36.2022 60.3472 36.0584 60.3182 35.9303 60.2526C35.8021 60.187 35.6945 60.0873 35.6193 59.9645C35.5441 59.8418 35.5041 59.7006 35.5039 59.5566V28.541C35.5034 28.3967 35.5429 28.2552 35.618 28.132C35.6931 28.0087 35.8008 27.9087 35.9292 27.843C36.0576 27.7773 36.2018 27.7484 36.3456 27.7595C36.4894 27.7707 36.6274 27.8215 36.7441 27.9063L58.0723 43.4141C58.173 43.4853 58.2552 43.5797 58.3119 43.6893C58.3687 43.7989 58.3983 43.9205 58.3983 44.0439C58.3983 44.1674 58.3687 44.289 58.3119 44.3986C58.2552 44.5082 58.173 44.6026 58.0723 44.6738Z" fill="#0A9BA5"/>
</svg>
