<svg width="50" height="50" viewBox="0 0 50 50" fill="none" xmlns="http://www.w3.org/2000/svg">
<path d="M43.5301 13.1455C43.2886 13.1455 43.0711 13.2455 42.9151 13.406L28.7051 21.61V14.0045C28.7048 13.8338 28.6537 13.667 28.5583 13.5255C28.4629 13.384 28.3274 13.2741 28.1692 13.2098C28.0111 13.1456 27.8374 13.13 27.6703 13.1649C27.5032 13.1999 27.3503 13.2838 27.2311 13.406L10.5721 23.0245V11.3335H10.5656C10.5666 11.314 10.5716 11.296 10.5716 11.2765C10.5715 10.9406 10.4381 10.6185 10.2008 10.3808C9.96342 10.143 9.64149 10.0092 9.30558 10.0085H6.87958V10.0205C6.54316 10.0205 6.22051 10.1542 5.98262 10.392C5.74473 10.6299 5.61108 10.9526 5.61108 11.289C5.61108 11.3115 5.61658 11.332 5.61758 11.3545V38.838H5.62958C5.65858 39.1514 5.80342 39.4428 6.03578 39.6551C6.26815 39.8674 6.57134 39.9854 6.88608 39.986C6.90108 39.986 6.91508 39.982 6.92958 39.9815H9.21408C9.24958 39.9845 9.28408 39.992 9.32058 39.992C10.0206 39.992 10.5891 39.424 10.5891 38.7235C10.5891 38.665 10.5796 38.6085 10.5716 38.552V26.981L27.2421 36.606C27.361 36.7235 27.5116 36.8037 27.6754 36.8368C27.8393 36.8698 28.0092 36.8542 28.1643 36.792C28.3194 36.7297 28.453 36.6235 28.5485 36.4863C28.6441 36.3492 28.6974 36.1871 28.7021 36.02H28.7046V28.3955L42.9261 36.6065C43.0449 36.724 43.1956 36.8042 43.3594 36.8373C43.5233 36.8703 43.6932 36.8547 43.8483 36.7925C44.0034 36.7302 44.137 36.624 44.2325 36.4868C44.3281 36.3497 44.3814 36.1876 44.3861 36.0205H44.3886V14.0045C44.3886 13.8917 44.3665 13.78 44.3234 13.6758C44.2803 13.5716 44.217 13.4769 44.1373 13.3971C44.0576 13.3174 43.9629 13.2541 43.8587 13.2109C43.7545 13.1677 43.6429 13.1455 43.5301 13.1455Z" fill="white" fill-opacity="0.75"/>
</svg>
